<mxfile host="app.diagrams.net" modified="2022-05-30T11:30:01.670Z" agent="5.0 (Windows NT 10.0; Win64; x64) AppleWebKit/537.36 (KHTML, like Gecko) Chrome/101.0.4951.67 Safari/537.36" etag="cjwU3on-dmv9KG4IAbMJ" version="18.0.7" type="github">
  <diagram id="pPh2A05Ir3e8hzdwtKiC" name="Page-1">
    <mxGraphModel dx="1038" dy="551" grid="1" gridSize="10" guides="1" tooltips="1" connect="1" arrows="1" fold="1" page="1" pageScale="1" pageWidth="850" pageHeight="1100" math="0" shadow="0">
      <root>
        <mxCell id="0" />
        <mxCell id="1" parent="0" />
        <mxCell id="JTfMJMIOYng_JvzWQRDk-1" value="" style="rounded=0;whiteSpace=wrap;html=1;" vertex="1" parent="1">
          <mxGeometry x="160" y="210" width="590" height="160" as="geometry" />
        </mxCell>
        <mxCell id="JTfMJMIOYng_JvzWQRDk-2" value="Home page" style="text;html=1;strokeColor=#666666;fillColor=#f5f5f5;align=center;verticalAlign=middle;whiteSpace=wrap;rounded=0;fontColor=#333333;" vertex="1" parent="1">
          <mxGeometry x="170" y="220" width="80" height="30" as="geometry" />
        </mxCell>
        <mxCell id="JTfMJMIOYng_JvzWQRDk-3" value="" style="rounded=0;whiteSpace=wrap;html=1;fillColor=#ffe6cc;strokeColor=#d79b00;" vertex="1" parent="1">
          <mxGeometry x="180" y="280" width="210" height="60" as="geometry" />
        </mxCell>
        <mxCell id="JTfMJMIOYng_JvzWQRDk-4" value="" style="rounded=0;whiteSpace=wrap;html=1;fillColor=#d5e8d4;strokeColor=#82b366;" vertex="1" parent="1">
          <mxGeometry x="492.5" y="280" width="200" height="60" as="geometry" />
        </mxCell>
        <mxCell id="JTfMJMIOYng_JvzWQRDk-5" value="&lt;b&gt;Internal Employee&lt;/b&gt;" style="text;html=1;strokeColor=none;fillColor=none;align=center;verticalAlign=middle;whiteSpace=wrap;rounded=0;" vertex="1" parent="1">
          <mxGeometry x="230" y="295" width="110" height="30" as="geometry" />
        </mxCell>
        <mxCell id="JTfMJMIOYng_JvzWQRDk-6" value="&lt;b&gt;External Employee&lt;/b&gt;" style="text;html=1;strokeColor=none;fillColor=none;align=center;verticalAlign=middle;whiteSpace=wrap;rounded=0;" vertex="1" parent="1">
          <mxGeometry x="535" y="295" width="115" height="30" as="geometry" />
        </mxCell>
        <mxCell id="JTfMJMIOYng_JvzWQRDk-7" value="&lt;b&gt;Client&lt;/b&gt;" style="text;html=1;strokeColor=none;fillColor=none;align=center;verticalAlign=middle;whiteSpace=wrap;rounded=0;" vertex="1" parent="1">
          <mxGeometry x="395" y="50" width="60" height="50" as="geometry" />
        </mxCell>
        <mxCell id="JTfMJMIOYng_JvzWQRDk-8" style="edgeStyle=orthogonalEdgeStyle;rounded=0;orthogonalLoop=1;jettySize=auto;html=1;entryX=0.5;entryY=1;entryDx=0;entryDy=0;" edge="1" parent="1" source="JTfMJMIOYng_JvzWQRDk-9" target="JTfMJMIOYng_JvzWQRDk-3">
          <mxGeometry relative="1" as="geometry" />
        </mxCell>
        <mxCell id="JTfMJMIOYng_JvzWQRDk-9" value="" style="rounded=1;whiteSpace=wrap;html=1;" vertex="1" parent="1">
          <mxGeometry x="20" y="407.5" width="460" height="180" as="geometry" />
        </mxCell>
        <mxCell id="JTfMJMIOYng_JvzWQRDk-10" value="username" style="text;html=1;strokeColor=none;fillColor=none;align=center;verticalAlign=middle;whiteSpace=wrap;rounded=0;" vertex="1" parent="1">
          <mxGeometry x="60" y="437.5" width="60" height="30" as="geometry" />
        </mxCell>
        <mxCell id="JTfMJMIOYng_JvzWQRDk-11" value="" style="rounded=0;whiteSpace=wrap;html=1;" vertex="1" parent="1">
          <mxGeometry x="170" y="435" width="260" height="35" as="geometry" />
        </mxCell>
        <mxCell id="JTfMJMIOYng_JvzWQRDk-12" value="password" style="text;html=1;strokeColor=none;fillColor=none;align=center;verticalAlign=middle;whiteSpace=wrap;rounded=0;" vertex="1" parent="1">
          <mxGeometry x="60" y="490" width="60" height="30" as="geometry" />
        </mxCell>
        <mxCell id="JTfMJMIOYng_JvzWQRDk-13" value="" style="rounded=0;whiteSpace=wrap;html=1;" vertex="1" parent="1">
          <mxGeometry x="170" y="487.5" width="260" height="35" as="geometry" />
        </mxCell>
        <mxCell id="JTfMJMIOYng_JvzWQRDk-14" style="edgeStyle=orthogonalEdgeStyle;rounded=0;orthogonalLoop=1;jettySize=auto;html=1;entryX=0.438;entryY=-0.002;entryDx=0;entryDy=0;entryPerimeter=0;" edge="1" parent="1" source="JTfMJMIOYng_JvzWQRDk-15" target="JTfMJMIOYng_JvzWQRDk-28">
          <mxGeometry relative="1" as="geometry" />
        </mxCell>
        <mxCell id="JTfMJMIOYng_JvzWQRDk-15" value="Login" style="rounded=0;whiteSpace=wrap;html=1;" vertex="1" parent="1">
          <mxGeometry x="195" y="537.5" width="120" height="40" as="geometry" />
        </mxCell>
        <mxCell id="JTfMJMIOYng_JvzWQRDk-16" value="Hub Login" style="text;html=1;strokeColor=#666666;fillColor=#f5f5f5;align=center;verticalAlign=middle;whiteSpace=wrap;rounded=0;fontColor=#333333;" vertex="1" parent="1">
          <mxGeometry x="39" y="411.5" width="110" height="30" as="geometry" />
        </mxCell>
        <mxCell id="JTfMJMIOYng_JvzWQRDk-17" style="edgeStyle=orthogonalEdgeStyle;rounded=0;orthogonalLoop=1;jettySize=auto;html=1;entryX=0.438;entryY=1;entryDx=0;entryDy=0;entryPerimeter=0;" edge="1" parent="1" source="JTfMJMIOYng_JvzWQRDk-18" target="JTfMJMIOYng_JvzWQRDk-4">
          <mxGeometry relative="1" as="geometry">
            <Array as="points">
              <mxPoint x="790" y="380" />
              <mxPoint x="580" y="380" />
            </Array>
          </mxGeometry>
        </mxCell>
        <mxCell id="JTfMJMIOYng_JvzWQRDk-18" value="" style="rounded=1;whiteSpace=wrap;html=1;" vertex="1" parent="1">
          <mxGeometry x="560" y="400" width="460" height="180" as="geometry" />
        </mxCell>
        <mxCell id="JTfMJMIOYng_JvzWQRDk-19" value="" style="rounded=0;whiteSpace=wrap;html=1;" vertex="1" parent="1">
          <mxGeometry x="710" y="427.5" width="260" height="35" as="geometry" />
        </mxCell>
        <mxCell id="JTfMJMIOYng_JvzWQRDk-20" value="password" style="text;html=1;strokeColor=none;fillColor=none;align=center;verticalAlign=middle;whiteSpace=wrap;rounded=0;" vertex="1" parent="1">
          <mxGeometry x="600" y="482.5" width="60" height="30" as="geometry" />
        </mxCell>
        <mxCell id="JTfMJMIOYng_JvzWQRDk-21" value="" style="rounded=0;whiteSpace=wrap;html=1;" vertex="1" parent="1">
          <mxGeometry x="710" y="480" width="260" height="35" as="geometry" />
        </mxCell>
        <mxCell id="JTfMJMIOYng_JvzWQRDk-22" style="edgeStyle=orthogonalEdgeStyle;rounded=0;orthogonalLoop=1;jettySize=auto;html=1;" edge="1" parent="1" source="JTfMJMIOYng_JvzWQRDk-23" target="JTfMJMIOYng_JvzWQRDk-26">
          <mxGeometry relative="1" as="geometry" />
        </mxCell>
        <mxCell id="JTfMJMIOYng_JvzWQRDk-23" value="Login" style="rounded=0;whiteSpace=wrap;html=1;" vertex="1" parent="1">
          <mxGeometry x="735" y="530" width="120" height="40" as="geometry" />
        </mxCell>
        <mxCell id="JTfMJMIOYng_JvzWQRDk-24" value="Application Login" style="text;html=1;strokeColor=#666666;fillColor=#f5f5f5;align=center;verticalAlign=middle;whiteSpace=wrap;rounded=0;fontColor=#333333;" vertex="1" parent="1">
          <mxGeometry x="579" y="404" width="110" height="30" as="geometry" />
        </mxCell>
        <mxCell id="JTfMJMIOYng_JvzWQRDk-25" value="username" style="text;html=1;strokeColor=none;fillColor=none;align=center;verticalAlign=middle;whiteSpace=wrap;rounded=0;" vertex="1" parent="1">
          <mxGeometry x="604" y="440" width="60" height="30" as="geometry" />
        </mxCell>
        <mxCell id="JTfMJMIOYng_JvzWQRDk-26" value="" style="rounded=1;whiteSpace=wrap;html=1;" vertex="1" parent="1">
          <mxGeometry x="570" y="660" width="370" height="110" as="geometry" />
        </mxCell>
        <mxCell id="JTfMJMIOYng_JvzWQRDk-27" value="&lt;ol&gt;&lt;li&gt;The application will validate the username and password&lt;/li&gt;&lt;li&gt;Authorize the username and granted roles and generate the JWT token&lt;/li&gt;&lt;li style=&quot;&quot;&gt;JWT token will be added as a header in each request&lt;/li&gt;&lt;/ol&gt;" style="text;html=1;strokeColor=none;fillColor=none;align=left;verticalAlign=middle;whiteSpace=wrap;rounded=0;" vertex="1" parent="1">
          <mxGeometry x="579" y="675" width="340" height="80" as="geometry" />
        </mxCell>
        <mxCell id="JTfMJMIOYng_JvzWQRDk-28" value="" style="rounded=1;whiteSpace=wrap;html=1;" vertex="1" parent="1">
          <mxGeometry x="29" y="660" width="411" height="110" as="geometry" />
        </mxCell>
        <mxCell id="JTfMJMIOYng_JvzWQRDk-29" value="Text" style="text;html=1;strokeColor=none;fillColor=none;align=center;verticalAlign=middle;whiteSpace=wrap;rounded=0;" vertex="1" parent="1">
          <mxGeometry x="400" y="560" width="60" height="30" as="geometry" />
        </mxCell>
        <mxCell id="JTfMJMIOYng_JvzWQRDk-30" value="Text" style="text;html=1;strokeColor=none;fillColor=none;align=center;verticalAlign=middle;whiteSpace=wrap;rounded=0;" vertex="1" parent="1">
          <mxGeometry x="400" y="560" width="60" height="30" as="geometry" />
        </mxCell>
        <mxCell id="JTfMJMIOYng_JvzWQRDk-31" value="Text" style="text;html=1;strokeColor=none;fillColor=none;align=center;verticalAlign=middle;whiteSpace=wrap;rounded=0;" vertex="1" parent="1">
          <mxGeometry x="400" y="560" width="60" height="30" as="geometry" />
        </mxCell>
        <mxCell id="JTfMJMIOYng_JvzWQRDk-32" value="&lt;ol&gt;&lt;li&gt;The HUB will authenticate the username and password&amp;nbsp;&lt;/li&gt;&lt;li&gt;Generate the access token and send it back to the redirect URL&lt;/li&gt;&lt;li&gt;The application will authorize the username returned and generate a JWT token&amp;nbsp;&lt;/li&gt;&lt;li&gt;JWT token will be added as a header in each request&lt;/li&gt;&lt;/ol&gt;" style="text;html=1;strokeColor=none;fillColor=none;align=left;verticalAlign=middle;whiteSpace=wrap;rounded=0;" vertex="1" parent="1">
          <mxGeometry x="39" y="670" width="391" height="90" as="geometry" />
        </mxCell>
        <mxCell id="JTfMJMIOYng_JvzWQRDk-33" style="edgeStyle=orthogonalEdgeStyle;rounded=0;orthogonalLoop=1;jettySize=auto;html=1;entryX=0.458;entryY=0;entryDx=0;entryDy=0;entryPerimeter=0;shape=flexArrow;fillColor=#333333;strokeColor=#333333;" edge="1" parent="1" source="JTfMJMIOYng_JvzWQRDk-34" target="JTfMJMIOYng_JvzWQRDk-1">
          <mxGeometry relative="1" as="geometry" />
        </mxCell>
        <mxCell id="JTfMJMIOYng_JvzWQRDk-34" value="" style="aspect=fixed;perimeter=ellipsePerimeter;html=1;align=center;shadow=0;spacingTop=3;image;image=img/lib/active_directory/user_accounts.svg;strokeWidth=7;" vertex="1" parent="1">
          <mxGeometry x="405" y="90" width="50" height="48.5" as="geometry" />
        </mxCell>
      </root>
    </mxGraphModel>
  </diagram>
</mxfile>
